<?xml version="1.0" encoding="UTF-8"?>
<svg version="1.1" xmlns="http://www.w3.org/2000/svg" width="1024" height="1024">
<path d="M0 0 C337.92 0 675.84 0 1024 0 C1024 337.92 1024 675.84 1024 1024 C686.08 1024 348.16 1024 0 1024 C0 686.08 0 348.16 0 0 Z " fill="#F2F2F2" transform="translate(0,0)"/>
<path d="M0 0 C0.66 0 1.32 0 2 0 C2 14.19 2 28.38 2 43 C19.89116381 42.93684445 37.78213845 42.86142337 55.67314434 42.76428509 C63.98252267 42.71955188 72.29186029 42.68008724 80.60131836 42.65356445 C87.85413351 42.63040039 95.10681731 42.59680238 102.35952789 42.55129844 C106.19045073 42.52761086 110.02124552 42.50872373 113.85223961 42.50238609 C144.56277811 42.44480479 179.42585399 41.88317966 203 19 C205.82369721 15.77489486 208.4648859 12.45568626 211 9 C212.31300341 12.95099695 211.35935234 14.9803858 209.52282715 18.68513489 C208.94885193 19.79618843 208.94885193 19.79618843 208.36328125 20.9296875 C207.97281616 21.70773239 207.58235107 22.48577728 207.18005371 23.28739929 C205.90304736 25.82297243 204.60845892 28.3490681 203.3125 30.875 C202.42543124 32.6233152 201.53895861 34.37193299 200.65307617 36.12084961 C194.82767346 47.58564186 188.85286347 58.9580261 182.57226562 70.18066406 C180.75839169 73.43324422 178.9639227 76.69630545 177.171875 79.9609375 C170.43996654 92.21677519 163.65890285 104.44145306 156.72949219 116.5871582 C153.96337536 121.45447644 151.26758833 126.34847809 148.65625 131.30078125 C137.05660063 153.2898139 125.84192405 169.44941692 101.45043945 178.14746094 C91.98628572 180.97712702 82.39887228 180.49668755 72.60546875 180.390625 C70.56139178 180.38314971 68.51730757 180.37746288 66.47322083 180.37347412 C61.13515881 180.35831913 55.79754331 180.31912641 50.45965576 180.2746582 C44.03261286 180.22622551 37.60541932 180.20812316 31.17824554 180.18484497 C21.45185467 180.14626798 11.72644044 180.06954357 2 180 C2 193.86 2 207.72 2 222 C-1.24040714 218.75959286 -3.66160454 216.32214959 -6.1640625 212.69921875 C-7.00239624 211.4935022 -7.00239624 211.4935022 -7.85766602 210.26342773 C-8.44088623 209.41337158 -9.02410645 208.56331543 -9.625 207.6875 C-10.24109131 206.79812744 -10.85718262 205.90875488 -11.49194336 204.99243164 C-13.33311358 202.33179893 -15.16722027 199.66641696 -17 197 C-17.96717415 195.59876933 -18.9345983 194.19771117 -19.90234375 192.796875 C-22.61077678 188.87087598 -25.30688523 184.93651781 -28 181 C-28.5141748 180.2486377 -29.02834961 179.49727539 -29.55810547 178.72314453 C-31.20556846 176.31554241 -32.85280787 173.90778744 -34.5 171.5 C-36.1442791 169.09661849 -37.78860709 166.69327053 -39.43310547 164.29003906 C-40.44017439 162.81819324 -41.44702839 161.34620033 -42.45361328 159.87402344 C-47.56500847 152.40118157 -52.71624561 144.95906553 -57.9375 137.5625 C-58.42629639 136.86592285 -58.91509277 136.1693457 -59.41870117 135.45166016 C-62.05822873 131.70041146 -64.74257924 127.99278011 -67.49609375 124.32421875 C-68.06142822 123.55843506 -68.6267627 122.79265137 -69.20922852 122.00366211 C-70.29766358 120.53109226 -71.40052165 119.06904566 -72.51928711 117.61938477 C-76.10857191 112.72122767 -76.10857191 112.72122767 -75.6171875 109.45703125 C-74.81667969 108.24080078 -74.81667969 108.24080078 -74 107 C-73.30390625 105.91589844 -72.6078125 104.83179688 -71.890625 103.71484375 C-71.01552187 102.45217564 -70.13494381 101.19329087 -69.25 99.9375 C-68.76901855 99.2463208 -68.28803711 98.5551416 -67.79248047 97.84301758 C-66.20037361 95.5581948 -64.60079375 93.27874362 -63 91 C-61.87221334 89.39075288 -60.74461235 87.78137562 -59.6171875 86.171875 C-57.85566317 83.65739705 -56.09386212 81.14311899 -54.33056641 78.62988281 C-49.8522264 72.23989319 -45.43560552 65.8098946 -41.04003906 59.36279297 C-36.01149608 51.99599267 -30.91600754 44.67653158 -25.81665039 37.35864258 C-21.88118877 31.70925095 -17.95947102 26.05100782 -14.0625 20.375 C-13.62929443 19.7456958 -13.19608887 19.1163916 -12.74975586 18.46801758 C-10.61647784 15.36688994 -8.49761739 12.25713659 -6.3984375 9.1328125 C-5.98327881 8.52002441 -5.56812012 7.90723633 -5.14038086 7.27587891 C-4.01478403 5.61409865 -2.89581577 3.94783398 -1.77734375 2.28125 C-1.19082031 1.5284375 -0.60429688 0.775625 0 0 Z " fill="#587223" transform="translate(609,611)"/>
<path d="M0 0 C19.9676571 -0.09367858 39.93526925 -0.16409404 59.90310097 -0.20724869 C69.17571001 -0.22782383 78.44818205 -0.25584724 87.72070312 -0.30175781 C95.80802075 -0.34178086 103.8952391 -0.36746945 111.98265302 -0.37635398 C116.26003086 -0.3815427 120.53712482 -0.39363117 124.81441116 -0.42292023 C128.85113469 -0.45033464 132.88746094 -0.45839326 136.92426872 -0.45243073 C138.39551271 -0.45351946 139.86677181 -0.46131711 141.33793449 -0.4768219 C161.2499601 -0.67615195 177.96257683 5.94404234 193 19 C193.61101562 19.44472656 194.22203125 19.88945312 194.8515625 20.34765625 C198.88334 23.35768192 201.52237923 27.0335132 204.19921875 31.24609375 C204.59151672 31.86065933 204.9838147 32.47522491 205.38800049 33.1084137 C209.32668129 39.37195668 212.79662733 45.85623141 216.20275879 52.42037964 C218.01609287 55.91309273 219.85174429 59.39403278 221.6875 62.875 C222.05208313 63.56697983 222.41666626 64.25895966 222.79229736 64.97190857 C227.11416423 73.1488531 231.67315942 81.18722005 236.265625 89.21484375 C237.17708333 90.80989583 238.08854167 92.40494792 239 94 C239.48404297 94.84191895 239.96808594 95.68383789 240.46679688 96.55126953 C240.92634766 97.36063965 241.38589844 98.17000977 241.859375 99.00390625 C242.27155273 99.72521729 242.68373047 100.44652832 243.10839844 101.18969727 C244 103 244 103 244 105 C261.59354876 94.65508082 261.59354876 94.65508082 279 84 C280.29712852 87.89138557 279.39738594 89.17711556 277.875 92.9375 C277.45992187 93.97777344 277.04484375 95.01804687 276.6171875 96.08984375 C275.73169921 98.24425156 274.83502987 100.3936899 273.93481445 102.54199219 C270.3438798 111.11714122 266.88124511 119.74004701 263.4375 128.375 C262.81787231 129.92695355 262.19816055 131.47887354 261.57836914 133.03076172 C260.6323128 135.39964165 259.6863319 137.76855141 258.7407074 140.13760376 C256.78947045 145.02563634 254.83422102 149.91203754 252.875 154.796875 C245.50897694 173.1688884 238.23681127 191.57678377 231 210 C222.48158742 210.33957942 214.23708286 209.27989247 205.8125 208.125 C204.50474609 207.95097656 203.19699219 207.77695312 201.84960938 207.59765625 C199.1997312 207.24433916 196.55031874 206.88865136 193.90136719 206.52856445 C190.20737695 206.02809581 186.51209448 205.53852557 182.81640625 205.05078125 C176.87632493 204.25975466 170.94149261 203.43527444 165.0078125 202.59765625 C164.13220673 202.47410767 163.25660095 202.35055908 162.35446167 202.2232666 C161.46461578 202.09770386 160.5747699 201.97214111 159.65795898 201.84277344 C137.15140982 198.65618955 137.15140982 198.65618955 114.58447266 195.93774414 C108.64448704 195.27197121 102.84236435 194.26295981 97 193 C100.11910194 189.58639058 103.57001413 187.23210193 107.515625 184.890625 C108.13145447 184.51895203 108.74728394 184.14727905 109.3817749 183.76434326 C111.33462253 182.58742792 113.29218175 181.41862393 115.25 180.25 C116.58104937 179.4497511 117.91178206 178.64897522 119.2421875 177.84765625 C122.49115911 175.89232078 125.74437845 173.94424146 129 172 C128.22718657 167.59872758 126.67869619 164.26426337 124.4375 160.4375 C123.85681763 159.42514282 123.85681763 159.42514282 123.2644043 158.39233398 C122.36693363 156.82860831 121.46638586 155.26664636 120.56347656 153.70605469 C117.80676009 148.93474842 115.07629442 144.14840429 112.34231567 139.36404419 C111.30172811 137.54365582 110.26016308 135.7238292 109.21850586 133.90405273 C104.76924247 126.12650116 100.36626694 118.32454098 96 110.5 C88.43074732 96.9438716 80.74180561 83.45809426 73 70 C72.35933594 68.88512207 71.71867187 67.77024414 71.05859375 66.62158203 C47.43219994 25.4822026 47.43219994 25.4822026 7 3 C6.24074219 2.77570313 5.48148437 2.55140625 4.69921875 2.3203125 C3.13762844 1.86341433 1.56972743 1.42810748 0 1 C0 0.67 0 0.34 0 0 Z " fill="#5D7527" transform="translate(437,213)"/>
<path d="M0 0 C7.93103464 16.73840063 15.8143699 33.49378036 23.4375 50.375 C28.78816601 62.218382 34.2556802 74.00191853 39.8125 85.75 C40.35156479 86.89075989 40.35156479 86.89075989 40.90151978 88.05456543 C44.34613872 95.34127064 47.80544121 102.61970493 51.33203125 109.8671875 C51.81244873 110.85879883 52.29286621 111.85041016 52.7878418 112.87207031 C53.65062384 114.64835849 54.5201013 116.4214175 55.39770508 118.19042969 C56.32457936 120.09921588 57.17250701 122.04607676 58 124 C57.67 124.66 57.34 125.32 57 126 C56.24493164 125.57702637 55.48986328 125.15405273 54.71191406 124.71826172 C51.85032088 123.11697607 48.98737095 121.51816742 46.12353516 119.92089844 C44.8954631 119.23532889 43.66790475 118.54883813 42.44091797 117.86132812 C34.39348409 113.35318335 26.29355289 109.04382199 18 105 C17.70681885 105.91990723 17.4136377 106.83981445 17.11157227 107.78759766 C15.79819527 111.58320812 13.93355675 114.9109309 11.9375 118.375 C7.03171279 127.04427053 2.3450317 135.82097974 -2.3125 144.625 C-7.88720619 155.15410084 -13.50024005 165.65982355 -19.18896484 176.12792969 C-23.93759021 184.87035391 -28.64498074 193.63468948 -33.32446289 202.41430664 C-36.45691736 208.2863727 -39.61993844 214.13862932 -42.8515625 219.95703125 C-52.70758375 237.77619551 -61.45259689 255.02822948 -61.25 275.8125 C-61.24613281 276.77430176 -61.24226563 277.73610352 -61.23828125 278.72705078 C-61.1540914 285.6575128 -60.59817578 292.23629177 -59 299 C-62.40504695 295.89395829 -64.72019774 292.47400022 -67.01953125 288.5234375 C-67.39480957 287.88955109 -67.77008789 287.25566467 -68.15673828 286.60256958 C-69.38136596 284.53020742 -70.59707183 282.45276874 -71.8125 280.375 C-72.66651601 278.92489763 -73.52093133 277.47503035 -74.37573242 276.02539062 C-80.80128721 265.11214317 -87.14330738 254.1507289 -93.44921875 243.16796875 C-96.97536602 237.03036242 -100.54807489 230.92060466 -104.125 224.8125 C-110.37425591 214.12760801 -116.48477647 203.36846006 -122.54541016 192.57568359 C-123.89585807 190.18440708 -125.26207868 187.80321103 -126.63671875 185.42578125 C-135.13381274 170.68836673 -140.02085257 157.86136736 -140.375 140.75 C-140.40118408 140.02482178 -140.42736816 139.29964355 -140.4543457 138.55249023 C-140.49550672 124.4677984 -135.13033601 112.06255796 -128.5625 99.9375 C-127.84697866 98.58622869 -127.13264208 97.23432941 -126.41943359 95.88183594 C-121.13646554 85.9118607 -115.60855061 76.08065401 -109.99609375 66.29296875 C-105.44140592 58.3145039 -101.21804851 50.15997195 -97 42 C-97.71172363 41.73807861 -98.42344727 41.47615723 -99.15673828 41.20629883 C-102.14633085 39.93791682 -104.74162585 38.42395035 -107.4921875 36.69921875 C-108.52730469 36.05146484 -109.56242187 35.40371094 -110.62890625 34.73632812 C-111.70011719 34.06021484 -112.77132812 33.38410156 -113.875 32.6875 C-114.93847656 32.02298828 -116.00195312 31.35847656 -117.09765625 30.67382812 C-122.52172534 27.26778226 -127.84248986 23.79833724 -133 20 C-129.25006511 17.69680867 -125.27408309 17.29528151 -120.99609375 16.73828125 C-119.7804071 16.57126709 -119.7804071 16.57126709 -118.54016113 16.40087891 C-115.84012308 16.03151909 -113.13884851 15.67213923 -110.4375 15.3125 C-108.53514044 15.05369193 -106.6328798 14.79415577 -104.73071289 14.53393555 C-100.65171674 13.97710295 -96.57219471 13.42437529 -92.4921875 12.875 C-82.41121687 11.51750479 -72.33262115 10.14266223 -62.25442505 8.76473999 C-59.01625577 8.32323781 -55.77758321 7.88559514 -52.53881836 7.44848633 C-41.95238599 6.01191691 -31.39912201 4.4739141 -20.87109375 2.65576172 C-5.19359643 0 -5.19359643 0 0 0 Z " fill="#4E681E" transform="translate(339,443)"/>
<path d="M0 0 C88.605 0.495 88.605 0.495 179 1 C179 45.22 179 89.44 179 135 C142.74070355 135.20151517 142.74070355 135.20151517 127.47851562 135.24414062 C116.96447473 135.27374194 106.45063504 135.3084304 95.93676758 135.37719727 C88.27756733 135.42726875 80.61853122 135.45934668 72.95917183 135.47044247 C68.90915814 135.47692139 64.85961374 135.49198508 60.80975151 135.52865028 C56.98553816 135.56298692 53.16198029 135.5729786 49.33762741 135.56553841 C47.94580439 135.56689638 46.55395581 135.57660265 45.16226768 135.59602737 C27.01748298 135.83652575 9.40796333 129.07931115 -3.7890625 116.4375 C-19.67724746 98.92119714 -21.95206403 78.7446011 -21.18652344 56.16748047 C-20.01296198 36.23844078 -8.26171448 17.44139723 0 0 Z " fill="#577122" transform="translate(307,655)"/>
<path d="M0 0 C0.28609131 0.52730713 0.57218262 1.05461426 0.86694336 1.59790039 C5.86181796 10.78691405 10.87743319 19.94056719 16.31567383 28.87597656 C22.05687461 38.34083059 27.51045948 47.97676863 33.02832031 57.57275391 C35.5616458 61.97627338 38.10027801 66.37671663 40.63989258 70.77661133 C41.88008347 72.92574381 43.11950406 75.07532099 44.3581543 77.2253418 C47.55659491 82.77581102 50.76659764 88.31909724 53.99609375 93.8515625 C79.787143 138.11547849 79.787143 138.11547849 74.125 162.45703125 C70.19840687 174.9988797 63.1191945 184.70512925 54 194 C53.39800781 194.62648438 52.79601562 195.25296875 52.17578125 195.8984375 C34.22564005 213.1087681 7.25449605 216.86214249 -16.5 217.6875 C-17.3780127 217.74333252 -18.25602539 217.79916504 -19.16064453 217.85668945 C-25.02755321 217.9272852 -25.02755321 217.9272852 -27.45092773 215.61645508 C-28.82619003 213.47992181 -29.90302461 211.29229576 -31 209 C-32.10765405 207.01231769 -33.22425021 205.02960346 -34.34765625 203.05078125 C-35.58765684 200.80563624 -36.82585744 198.55949639 -38.0625 196.3125 C-39.40314019 193.88571627 -40.74605612 191.46019837 -42.08984375 189.03515625 C-42.42359009 188.43275116 -42.75733643 187.83034607 -43.10119629 187.20968628 C-46.06645367 181.86511786 -49.08329695 176.55134168 -52.125 171.25 C-56.2293249 164.09506131 -60.31614933 156.93085594 -64.375 149.75 C-64.91342529 148.79762451 -65.45185059 147.84524902 -66.0065918 146.86401367 C-68.83154538 141.86073214 -71.6442065 136.85088499 -74.44140625 131.83203125 C-80.23908214 121.43275461 -86.0942574 111.07867503 -92.125 100.8125 C-94.42426518 96.87938418 -96.71532754 92.94160951 -99 89 C-99.8967041 87.45481689 -99.8967041 87.45481689 -100.81152344 85.87841797 C-102.55971069 82.84580001 -104.28334999 79.80055739 -106 76.75 C-106.53512207 75.82678955 -107.07024414 74.9035791 -107.62158203 73.95239258 C-108.09708496 73.09669678 -108.57258789 72.24100098 -109.0625 71.359375 C-109.48660156 70.61139648 -109.91070313 69.86341797 -110.34765625 69.09277344 C-111 67 -111 67 -110.46826172 64.94702148 C-108.47977947 62.31014987 -106.31670949 61.1196441 -103.4453125 59.48828125 C-102.88092468 59.16304474 -102.31653687 58.83780823 -101.73504639 58.50271606 C-100.51199706 57.79923124 -99.28621136 57.10048708 -98.05804443 56.40597534 C-94.73995074 54.52901195 -91.44206046 52.61699571 -88.140625 50.7109375 C-87.46051361 50.31964157 -86.78040222 49.92834564 -86.0796814 49.52519226 C-79.27782551 45.6046676 -72.57196252 41.53376603 -65.875 37.4375 C-54.46394879 30.47265932 -42.99211308 23.61897559 -31.4765625 16.828125 C-27.14683289 14.27479482 -22.83029624 11.70108981 -18.5234375 9.109375 C-17.50620605 8.4999707 -16.48897461 7.89056641 -15.44091797 7.26269531 C-13.52799395 6.11614779 -11.61799016 4.96470914 -9.71142578 3.80761719 C-8.86821777 3.30391602 -8.02500977 2.80021484 -7.15625 2.28125 C-6.42212891 1.83845703 -5.68800781 1.39566406 -4.93164062 0.93945312 C-3 0 -3 0 0 0 Z " fill="#4E681E" transform="translate(755,429)"/>
<path d="M0 0 C11.72060646 7.91361249 20.51387321 18.58694144 27.3125 30.875 C27.76882813 31.69613281 28.22515625 32.51726562 28.6953125 33.36328125 C30.16082384 36.03960276 31.58737492 38.73292636 33 41.4375 C33.45914795 42.29480713 33.9182959 43.15211426 34.39135742 44.03540039 C34.80232666 44.85000732 35.2132959 45.66461426 35.63671875 46.50390625 C36.00885498 47.22650635 36.38099121 47.94910645 36.7644043 48.69360352 C37.84472898 52.99324762 34.91895133 56.75226596 32.8359375 60.41015625 C32.33843994 61.28720215 31.84094238 62.16424805 31.32836914 63.06787109 C30.78688232 64.01484863 30.24539551 64.96182617 29.6875 65.9375 C29.11700928 66.94119629 28.54651855 67.94489258 27.95874023 68.97900391 C24.11502227 75.73538179 20.25090453 82.48012652 16.390625 89.22705078 C16.05901367 89.80666565 15.72740234 90.38628052 15.38574219 90.98345947 C14.70890633 92.16640997 14.03198501 93.34931156 13.35498047 94.53216553 C6.25839774 106.93382493 -0.72645686 119.39683296 -7.6875 131.875 C-16.9475605 148.47431988 -26.27707693 165.03102085 -35.76464844 181.50146484 C-37.14293065 183.91958363 -38.49899279 186.34354212 -39.83691406 188.78369141 C-40.19435699 189.42836868 -40.55179993 190.07304596 -40.92007446 190.73725891 C-41.61007984 191.98292201 -42.29286128 193.23262173 -42.96737671 194.48674011 C-45.35023163 198.76257721 -45.35023163 198.76257721 -48.6875 199.875 C-50.97045898 198.88134766 -50.97045898 198.88134766 -53.68359375 197.2890625 C-54.70235596 196.69689941 -55.72111816 196.10473633 -56.77075195 195.49462891 C-57.87765381 194.83640137 -58.98455566 194.17817383 -60.125 193.5 C-61.29283049 192.81494015 -62.46105089 192.1305446 -63.62963867 191.44677734 C-73.15086983 185.85727595 -82.58156881 180.11606797 -92.00292969 174.36035156 C-100.40695298 169.23056644 -108.87097439 164.21205407 -117.375 159.25 C-130.54464088 151.56555991 -143.63260961 143.75310085 -156.6875 135.875 C-156.14700463 131.36726864 -155.01068634 128.16044011 -152.765625 124.2265625 C-152.15895996 123.15116211 -151.55229492 122.07576172 -150.92724609 120.96777344 C-150.27062988 119.8234082 -149.61401367 118.67904297 -148.9375 117.5 C-147.90614906 115.6791398 -146.8781346 113.85642265 -145.85031128 112.03356934 C-145.15089109 110.79350344 -144.45046488 109.55400445 -143.74905396 108.31506348 C-140.43891144 102.46188625 -137.24282438 96.54960491 -134.0625 90.625 C-129.87080571 82.83630966 -125.57429345 75.11783985 -121.1875 67.4375 C-116.65217243 59.48481777 -112.32265328 51.44835172 -108.125 43.3125 C-103.89385293 35.12445869 -99.66037781 26.93934218 -95.3125 18.8125 C-94.84900146 17.9268335 -94.38550293 17.04116699 -93.90795898 16.12866211 C-89.49941007 7.95236459 -84.12254058 1.54489133 -76.625 -3.9375 C-75.64402344 -4.66582031 -74.66304688 -5.39414063 -73.65234375 -6.14453125 C-51.53020157 -20.92177247 -21.2617354 -12.36934534 0 0 Z " fill="#5D7627" transform="translate(462.6875,232.125)"/>
<path d="M0 0 C8.58 0 17.16 0 26 0 C26.72469482 2.03365723 27.44938965 4.06731445 28.19604492 6.16259766 C30.72562242 13.25076311 33.28872656 20.3264817 35.86328125 27.3984375 C36.51855049 29.19989731 36.51855049 29.19989731 37.1870575 31.03775024 C38.32926714 34.1776781 39.47182459 37.31747892 40.61456299 40.45721436 C41.78826532 43.68230407 42.96149332 46.90756633 44.13476562 50.1328125 C46.42274839 56.42203104 48.71119118 62.71108204 51 69 C52.90950147 66.13574779 53.88797355 63.79823405 55.01538086 60.56982422 C55.40596176 59.45791718 55.79654266 58.34601013 56.19895935 57.20040894 C56.6167012 55.99732086 57.03444305 54.79423279 57.46484375 53.5546875 C57.89881973 52.31510284 58.33279572 51.07551819 58.77992249 49.79837036 C59.93496433 46.49874771 61.08481521 43.19733819 62.23370361 39.89556885 C63.16472818 37.22263778 64.09935162 34.55097246 65.03420162 31.87937737 C66.97837146 26.32310329 68.91958408 20.76579425 70.85522461 15.20654297 C71.36913002 13.73119583 71.36913002 13.73119583 71.89341736 12.2260437 C73.28829511 8.15952717 74.64050595 4.07848214 76 0 C84.91 0 93.82 0 103 0 C103 36.63 103 73.26 103 111 C96.07 111 89.14 111 82 111 C81.67 86.25 81.34 61.5 81 36 C74.34478707 55.95025968 74.34478707 55.95025968 68 76 C67.29686595 78.17656676 66.58632334 80.35080203 65.859375 82.51953125 C65.51132812 83.56044922 65.16328125 84.60136719 64.8046875 85.67382812 C64.45664062 86.70958984 64.10859375 87.74535156 63.75 88.8125 C63.38648438 89.89853516 63.02296875 90.98457031 62.6484375 92.10351562 C61.76702782 94.73614717 60.88372045 97.36814324 60 100 C54.72 100 49.44 100 44 100 C36.89436002 80.36977237 29.93567269 60.69093281 23 41 C22.67 64.43 22.34 87.86 22 112 C14.74 112 7.48 112 0 112 C0 75.04 0 38.08 0 0 Z " fill="#5A712A" transform="translate(530,482)"/>
<path d="M0 0 C22.11 0 44.22 0 67 0 C67 6.6 67 13.2 67 20 C52.48 20 37.96 20 23 20 C23 28.58 23 37.16 23 46 C35.21 46 47.42 46 60 46 C60 51.94 60 57.88 60 64 C47.79 64 35.58 64 23 64 C23 73.57 23 83.14 23 93 C37.52 93 52.04 93 67 93 C67 99.6 67 106.2 67 113 C44.89 113 22.78 113 0 113 C0 75.71 0 38.42 0 0 Z " fill="#576C2A" transform="translate(448,481)"/>
<path d="M0 0 C7.59 0 15.18 0 23 0 C23 36.96 23 73.92 23 112 C15.41 112 7.82 112 0 112 C0 75.04 0 38.08 0 0 Z " fill="#516722" transform="translate(406,482)"/>
<path d="M0 0 C8.28712871 10.12871287 8.28712871 10.12871287 10 14.625 C10.93068599 17.25296041 10.93068599 17.25296041 13.5625 19.5625 C15.88863655 21.88863655 16.64676767 22.82090906 17 26 C17.66 26 18.32 26 19 26 C19 26.66 19 27.32 19 28 C19.66 28 20.32 28 21 28 C21.33 29.32 21.66 30.64 22 32 C21.01 32 20.02 32 19 32 C17.57714844 30.50634766 17.57714844 30.50634766 16.109375 28.4140625 C15.29654053 27.27155029 15.29654053 27.27155029 14.46728516 26.10595703 C13.90058105 25.28724121 13.33387695 24.46852539 12.75 23.625 C12.17169434 22.80241699 11.59338867 21.97983398 10.99755859 21.13232422 C9.84938904 19.49820471 8.70461839 17.86169109 7.56347656 16.22265625 C6.25566792 14.36346045 4.92285274 12.53359129 3.5546875 10.71875 C2.91789063 9.8628125 2.28109375 9.006875 1.625 8.125 C0.80902344 7.04605469 0.80902344 7.04605469 -0.0234375 5.9453125 C-1 4 -1 4 -0.6640625 1.7421875 C-0.44492187 1.16726563 -0.22578125 0.59234375 0 0 Z " fill="#52652A" transform="translate(543,732)"/>
<path d="M0 0 C0.94771526 2.55649118 1.10121562 3.71322242 0.1796875 6.32421875 C-0.25085938 7.10410156 -0.68140625 7.88398437 -1.125 8.6875 C-1.54007813 9.47511719 -1.95515625 10.26273438 -2.3828125 11.07421875 C-4.45256774 13.53892728 -5.8701174 13.62501407 -9 14 C-9.99 14.495 -9.99 14.495 -11 15 C-9.57911395 11.82431967 -7.83591377 9.50601536 -5.5 6.9375 C-3.44184439 4.66567993 -1.70861829 2.56292743 0 0 Z " fill="#485F1F" transform="translate(820,620)"/>
<path d="M0 0 C2.31 0.33 4.62 0.66 7 1 C6.2575 1.556875 5.515 2.11375 4.75 2.6875 C1.23667987 5.64188284 -1.36204154 8.38634036 -3.0625 12.6875 C-4 15 -4 15 -7 17 C-5.24009216 11.08030998 -2.60305395 5.58365008 0 0 Z " fill="#445C1C" transform="translate(307,655)"/>
<path d="M0 0 C3 1 3 1 4.125 2.8125 C5 5 5 5 5.5 7.1875 C5.665 7.785625 5.83 8.38375 6 9 C6.66 9.33 7.32 9.66 8 10 C7.67 11.32 7.34 12.64 7 14 C5.63343543 12.23871656 4.28205915 10.46563912 2.9375 8.6875 C1.80634766 7.20830078 1.80634766 7.20830078 0.65234375 5.69921875 C0.10707031 4.80847656 -0.43820312 3.91773438 -1 3 C-0.67 2.01 -0.34 1.02 0 0 Z " fill="#4B5E24" transform="translate(534,720)"/>
<path d="M0 0 C0.66 0 1.32 0 2 0 C2.99 2.97 3.98 5.94 5 9 C2.36 7.68 -0.28 6.36 -3 5 C-1 1 -1 1 0 0 Z " fill="#4F5F2B" transform="translate(392,560)"/>
<path d="M0 0 C0.99 0 1.98 0 3 0 C5.42603384 2.98055586 6.91332443 5.00323092 7.25 8.875 C7.1675 9.57625 7.085 10.2775 7 11 C5.66104368 9.33784732 4.32869858 7.67036393 3 6 C2.4225 5.278125 1.845 4.55625 1.25 3.8125 C0 2 0 2 0 0 Z " fill="#596B2E" transform="translate(566,768)"/>
<path d="M0 0 C2.31 1.98 4.62 3.96 7 6 C6.67 6.99 6.34 7.98 6 9 C4.85073734 8.04578192 3.70569459 7.08647955 2.5625 6.125 C1.92441406 5.59132812 1.28632813 5.05765625 0.62890625 4.5078125 C-1 3 -1 3 -2 1 C-1.34 0.67 -0.68 0.34 0 0 Z " fill="#42561B" transform="translate(477,230)"/>
<path d="M0 0 C0.66 0.33 1.32 0.66 2 1 C-2.625 6.875 -2.625 6.875 -6 8 C-6 6.68 -6 5.36 -6 4 C-4 2.25 -4 2.25 -2 1 C-1.34 1.33 -0.68 1.66 0 2 C0 1.34 0 0.68 0 0 Z " fill="#6D7F3F" transform="translate(739,768)"/>
<path d="M0 0 C3.03336186 -0.22893297 5.97465051 -0.36475845 9 0 C11.0625 2 11.0625 2 12 4 C7.6822542 3.49202991 3.96697886 2.80317221 0 1 C0 0.67 0 0.34 0 0 Z " fill="#4C6028" transform="translate(443,214)"/>
<path d="M0 0 C0.66 0.66 1.32 1.32 2 2 C0.68 4.64 -0.64 7.28 -2 10 C-2.33 10 -2.66 10 -3 10 C-3.36923077 3.47692308 -3.36923077 3.47692308 -1.5 1.0625 C-1.005 0.711875 -0.51 0.36125 0 0 Z " fill="#52642C" transform="translate(323,607)"/>
<path d="M0 0 C0.33 0.66 0.66 1.32 1 2 C1.66 2 2.32 2 3 2 C2.75 3.875 2.75 3.875 2 6 C-0.0625 7.25 -0.0625 7.25 -2 8 C-1.125 2.25 -1.125 2.25 0 0 Z " fill="#627732" transform="translate(308,360)"/>
<path d="M0 0 C0 3 0 3 -1.75 5.04296875 C-2.4925 5.75066406 -3.235 6.45835937 -4 7.1875 C-4.7425 7.90292969 -5.485 8.61835938 -6.25 9.35546875 C-6.8275 9.89816406 -7.405 10.44085938 -8 11 C-8 6.67750434 -5.85084926 5.11604454 -3 2 C-2.01 1.34 -1.02 0.68 0 0 Z " fill="#52682C" transform="translate(383,231)"/>
<path d="M0 0 C3.36720387 1.39332574 4.9859524 2.9789286 7 6 C6.01 6.33 5.02 6.66 4 7 C2.35 5.02 0.7 3.04 -1 1 C-0.67 0.67 -0.34 0.34 0 0 Z " fill="#4B631F" transform="translate(469,239)"/>
<path d="M0 0 C2.15377564 2.62198774 3.40072174 4.64404172 4 8 C3.01 8 2.02 8 1 8 C0.26919734 6.02253397 -0.39421747 4.01927511 -1 2 C-0.67 1.34 -0.34 0.68 0 0 Z " fill="#485E20" transform="translate(654,508)"/>
<path d="M0 0 C0.33 0 0.66 0 1 0 C1 2.31 1 4.62 1 7 C-0.98 7.99 -0.98 7.99 -3 9 C-2.01 6.03 -1.02 3.06 0 0 Z " fill="#E8E8E3" transform="translate(610,521)"/>
<path d="M0 0 C0.66 0 1.32 0 2 0 C1.625 2.9375 1.625 2.9375 1 6 C0.01 6.495 0.01 6.495 -1 7 C-1.625 5.1875 -1.625 5.1875 -2 3 C-1.34 2.01 -0.68 1.02 0 0 Z " fill="#495B27" transform="translate(303,643)"/>
<path d="M0 0 C0.66 0 1.32 0 2 0 C1.6875 1.875 1.6875 1.875 1 4 C0.01 4.66 -0.98 5.32 -2 6 C-2 2 -2 2 0 0 Z " fill="#ECE9E2" transform="translate(810,628)"/>
<path d="M0 0 C0.6875 1.75 0.6875 1.75 1 4 C-0.4375 6.25 -0.4375 6.25 -2 8 C-2 7.34 -2 6.68 -2 6 C-2.66 5.67 -3.32 5.34 -4 5 C-2.68 3.35 -1.36 1.7 0 0 Z " fill="#627A43" transform="translate(820,620)"/>
<path d="M0 0 C-0.99 0 -1.98 0 -3 0 C-2.67 0.99 -2.34 1.98 -2 3 C-5 3 -5 3 -6.6875 1.5 C-7.120625 1.005 -7.55375 0.51 -8 0 C-4.94736336 -0.98120464 -3.05263664 -0.98120464 0 0 Z " fill="#546633" transform="translate(214,462)"/>
</svg>
