<?xml version="1.0" encoding="UTF-8"?>
<svg version="1.1" xmlns="http://www.w3.org/2000/svg" width="1024" height="1024">
<path d="M0 0 C337.92 0 675.84 0 1024 0 C1024 337.92 1024 675.84 1024 1024 C686.08 1024 348.16 1024 0 1024 C0 686.08 0 348.16 0 0 Z " fill="#F0F0F0" transform="translate(0,0)"/>
<path d="M0 0 C0.33 0 0.66 0 1 0 C1 14.19 1 28.38 1 43 C19.39546237 42.95951979 37.79063883 42.90246744 56.18593788 42.81609726 C64.72959277 42.77649871 73.27315811 42.74400981 81.81689453 42.72900391 C89.27446909 42.71588684 96.731845 42.68867076 104.18930757 42.64538693 C108.12817154 42.62299491 112.06679261 42.60707566 116.00572586 42.60811615 C148.27976933 42.60720454 180.12109977 39.99802117 205 17 C207.18889488 14.44483585 209.15854706 11.81457847 211 9 C212.33246738 12.99740215 211.27840895 14.12001837 209.45703125 17.86328125 C208.88404297 19.04881592 208.31105469 20.23435059 207.72070312 21.45581055 C207.08529025 22.74169749 206.44920615 24.02725293 205.8125 25.3125 C205.16451153 26.63637575 204.5167269 27.96035129 203.86914062 29.28442383 C198.72581347 39.74695725 193.23172467 49.99365252 187.55810547 60.17773438 C184.67361046 65.40254826 181.87720411 70.67487384 179.0625 75.9375 C174.01527996 85.34978925 168.82958808 94.6726444 163.54101562 103.95117188 C160.44473476 109.39713956 157.44988033 114.87836635 154.5625 120.4375 C150.85403441 127.5202254 146.9681317 134.49711205 143 141.4375 C142.44256104 142.43257568 141.88512207 143.42765137 141.31079102 144.45288086 C132.04025232 160.50078079 119.19838715 171.40728492 102 178 C96.88885084 179.10714857 91.893313 179.17039354 86.68994141 179.20532227 C85.77222961 179.21522186 84.85451782 179.22512146 83.90899658 179.23532104 C80.88987771 179.26678959 77.87074313 179.29163534 74.8515625 179.31640625 C72.75263064 179.33698843 70.6537028 179.35798523 68.55477905 179.37937927 C63.04094716 179.43446936 57.52707867 179.48393608 52.01318359 179.53222656 C45.39177972 179.59138884 38.77044246 179.65754471 32.14909363 179.72252655 C22.09943657 179.82037162 12.04973601 179.90934019 2 180 C1.67 193.53 1.34 207.06 1 221 C-4.63038549 215.36961451 -4.63038549 215.36961451 -6.61328125 212.65234375 C-7.05188477 212.05413818 -7.49048828 211.45593262 -7.94238281 210.83959961 C-8.39452148 210.21190674 -8.84666016 209.58421387 -9.3125 208.9375 C-9.79686523 208.27049072 -10.28123047 207.60348145 -10.78027344 206.91625977 C-14.1897417 202.19350229 -17.46312315 197.39407806 -20.6640625 192.52734375 C-30.24309455 177.99408834 -40.2376495 163.73159336 -50.24853516 149.49414062 C-52.04842384 146.93104294 -53.84330668 144.364508 -55.63671875 141.796875 C-56.23661621 140.93860107 -56.83651367 140.08032715 -57.45458984 139.19604492 C-58.63754607 137.50204003 -59.81890158 135.80691603 -60.99853516 134.1105957 C-63.65612642 130.29890042 -66.33845852 126.51857675 -69.13671875 122.80859375 C-69.85069824 121.85122314 -69.85069824 121.85122314 -70.57910156 120.87451172 C-71.45491674 119.70623346 -72.34280549 118.54686303 -73.24511719 117.39892578 C-76.06144317 113.62362298 -76.06144317 113.62362298 -75.76171875 110.58154297 C-74.97136494 107.90295283 -74.00452865 106.1289183 -72.41015625 103.84765625 C-71.87801514 103.0781665 -71.34587402 102.30867676 -70.79760742 101.51586914 C-70.22502197 100.70625732 -69.65243652 99.89664551 -69.0625 99.0625 C-68.18331909 97.79877563 -68.18331909 97.79877563 -67.28637695 96.50952148 C-63.38657393 90.91904322 -59.42825185 85.36990828 -55.44604492 79.83789062 C-53.01763188 76.45666786 -50.66675226 73.03757532 -48.375 69.5625 C-43.77614305 62.59453492 -38.98252081 55.76432358 -34.20556641 48.91772461 C-29.85349525 42.67592509 -25.53444225 36.41338174 -21.25 30.125 C-4.69779734 5.84980497 -4.69779734 5.84980497 0 0 Z " fill="#567222" transform="translate(607,614)"/>
<path d="M0 0 C20.20169784 -0.0467527 40.40338468 -0.08200488 60.60512543 -0.10362434 C69.98546662 -0.11393013 79.36577416 -0.12797715 88.74609375 -0.15087891 C96.92344641 -0.17083411 105.1007747 -0.18372151 113.27815104 -0.18817699 C117.60666325 -0.19078075 121.93510574 -0.19688625 126.26359558 -0.21146011 C130.3412607 -0.22507768 134.41882766 -0.22921422 138.49651337 -0.22621536 C139.98961165 -0.22676366 141.48271337 -0.23071619 142.97579193 -0.23841095 C163.95337425 -0.34117996 180.60674308 7.50418349 195.87304688 21.80981445 C202.75314558 28.89445237 207.26249468 37.83249694 211.8125 46.5 C213.04729407 48.82208435 214.28297379 51.14369796 215.51953125 53.46484375 C216.11588379 54.58745605 216.71223633 55.71006836 217.32666016 56.86669922 C219.51012953 60.95520899 221.74114838 65.01525252 224 69.0625 C224.37922607 69.74231934 224.75845215 70.42213867 225.14916992 71.12255859 C226.43093464 73.41607629 227.71544402 75.70804447 229 78 C230.2422773 80.22000183 231.48445765 82.44005792 232.7265625 84.66015625 C236.14855632 90.77483145 239.57337335 96.88791996 243 103 C247.50644732 101.66799542 251.15620253 99.86759648 255.1328125 97.375 C255.69193329 97.02743652 256.25105408 96.67987305 256.82711792 96.32177734 C258.59678604 95.22032903 260.36106774 94.11060613 262.125 93 C263.89701384 91.89098454 265.67011841 90.78375807 267.44430542 89.67822266 C269.04974056 88.67681693 270.65215294 87.67056997 272.25439453 86.6640625 C274.46926888 85.32166667 276.6618095 84.10723281 279 83 C278.32979585 87.06140463 277.07198648 90.62264356 275.53833008 94.43798828 C275.28757217 95.06524811 275.03681427 95.69250793 274.77845764 96.33877563 C273.94622485 98.41761523 273.10788755 100.49393568 272.26953125 102.5703125 C271.67635044 104.04858337 271.08355952 105.52701074 270.49113464 107.00558472 C268.92043508 110.92277872 267.34460284 114.8378878 265.76763916 118.75256348 C264.2204411 122.59559426 262.67770233 126.44041306 261.13476562 130.28515625 C258.9821885 135.64792722 256.82814733 141.01010565 254.67230034 146.37156296 C249.74345869 158.63001491 244.83519085 170.89666829 239.93138027 183.1651516 C239.40211693 184.48890564 238.87255121 185.81253883 238.34265995 187.13604164 C236.98760449 190.52181823 235.63931528 193.91009421 234.30044556 197.30230713 C234.02506612 197.99753038 233.74968668 198.69275364 233.46596241 199.40904427 C232.93946375 200.73861435 232.41499116 202.06898904 231.89282513 203.40026665 C230.1124767 207.8875233 230.1124767 207.8875233 229 209 C213.93225491 209.09126614 198.77586876 206.32987606 183.86273193 204.39770508 C181.06030449 204.03597618 178.25719806 203.67968171 175.45406437 203.32347393 C162.40642152 201.6642753 149.3605811 200.00292073 136.36773682 197.95010376 C130.94810222 197.10081576 125.52063569 196.48297359 120.0625 195.9375 C98.79074863 193.79074863 98.79074863 193.79074863 96 191 C102.6630187 186.44584696 109.48906557 182.22815032 116.4375 178.125 C117.42943359 177.53203125 118.42136719 176.9390625 119.44335938 176.328125 C120.38888672 175.76867187 121.33441406 175.20921875 122.30859375 174.6328125 C123.16251709 174.12637207 124.01644043 173.61993164 124.89624023 173.09814453 C127 172 127 172 129 172 C122.23466925 157.63525663 114.01116768 143.99975152 106.125 130.234375 C105.12807926 128.49380527 104.13115957 126.75323494 103.13439941 125.01257324 C102.45935952 123.83384534 101.78414685 122.65521637 101.10876465 121.47668457 C96.12374743 112.77453302 91.22482059 104.02845326 86.375 95.25 C57.78672384 37.86914578 57.78672384 37.86914578 7.21484375 3.0078125 C4.59403103 2.18622115 2.41679218 1.2587391 0 0 Z " fill="#5C7526" transform="translate(436,217)"/>
<path d="M0 0 C8.40286982 17.66976004 16.76171754 35.35405147 24.8125 53.1875 C30.5477793 65.88590836 36.4731738 78.4788022 42.55615234 91.01513672 C45.54183466 97.1874316 48.48527495 103.38003552 51.43652344 109.56884766 C51.86094727 110.45749512 52.28537109 111.34614258 52.72265625 112.26171875 C53.11598145 113.08591309 53.50930664 113.91010742 53.91455078 114.75927734 C54.85134246 116.69312216 55.82646822 118.60831073 56.80859375 120.51953125 C58 123 58 123 58 125 C54.08350249 123.53633603 50.52971113 121.71180124 46.88671875 119.6640625 C46.31347366 119.34343842 45.74022858 119.02281433 45.14961243 118.69247437 C43.32729551 117.672829 41.50723283 116.64924893 39.6875 115.625 C28.96091 109.59199892 28.96091 109.59199892 18 104 C17.74202637 104.68650635 17.48405273 105.3730127 17.21826172 106.08032227 C15.83349769 109.39903831 14.20269307 112.54809181 12.5078125 115.71484375 C12.16602966 116.35807083 11.82424683 117.00129791 11.47210693 117.66401672 C10.35908708 119.75661899 9.24218937 121.84712118 8.125 123.9375 C7.34772606 125.39610932 6.57054583 126.85476859 5.79345703 128.31347656 C1.06267595 137.1844769 -3.71542675 146.02847999 -8.54711914 154.8449707 C-14.13212087 165.0432993 -19.60662028 175.30082188 -25.08781433 185.55516052 C-27.36714402 189.81881821 -29.6511181 194.0799641 -31.9375 198.33984375 C-35.06970306 204.17566296 -38.1958308 210.01469264 -41.31787109 215.85595703 C-42.39177791 217.86318083 -43.46744585 219.86946405 -44.54541016 221.87451172 C-53.73870298 238.97621414 -61.61975787 254.68906075 -61.3125 274.5625 C-61.31733398 276.13161133 -61.31733398 276.13161133 -61.32226562 277.73242188 C-61.27483757 284.67847575 -60.46995617 291.2139688 -59 298 C-62.95364183 294.46301832 -65.53416791 290.33755049 -68.3125 285.875 C-68.8295752 285.0502417 -69.34665039 284.2254834 -69.87939453 283.37573242 C-76.22601477 273.15814395 -82.15816031 262.69923032 -88.12841797 252.25927734 C-91.0352282 247.19719587 -93.98707377 242.16173903 -96.9375 237.125 C-104.0820177 224.90742794 -111.09810804 212.61782698 -118.10449219 200.32080078 C-119.91029469 197.15715761 -121.72304082 193.99762961 -123.5390625 190.83984375 C-124.0841748 189.89069092 -124.62928711 188.94153809 -125.19091797 187.96362305 C-126.19084482 186.22322422 -127.19233375 184.48372139 -128.19580078 182.74536133 C-136.3287889 168.5706829 -140.32894872 155.94673094 -140.5625 139.5 C-140.58924805 138.50492432 -140.61599609 137.50984863 -140.64355469 136.48461914 C-140.56746696 120.81942447 -133.67000764 107.52672795 -126.3125 94.125 C-125.50033216 92.62129808 -124.68930659 91.11697866 -123.87939453 89.61206055 C-121.60547364 85.39741253 -119.30758229 81.19629377 -117 77 C-116.16686279 75.482854 -116.16686279 75.482854 -115.31689453 73.93505859 C-113.26715282 70.21350717 -111.20228626 66.5009186 -109.12109375 62.796875 C-106.84706085 58.74339295 -104.63218516 54.65941003 -102.4375 50.5625 C-102.10218262 49.94028564 -101.76686523 49.31807129 -101.42138672 48.67700195 C-100.06656002 46.13571885 -98.91311458 43.73934373 -98 41 C-98.63679688 40.78730469 -99.27359375 40.57460938 -99.9296875 40.35546875 C-104.27507902 38.43708343 -108.13634549 35.8786219 -112.125 33.3125 C-113.82157221 32.2277983 -115.51818662 31.14316261 -117.21484375 30.05859375 C-118.0332373 29.53378418 -118.85163086 29.00897461 -119.69482422 28.46826172 C-121.68338179 27.20166722 -123.68145948 25.95488777 -125.69140625 24.72265625 C-126.68011719 24.11292969 -127.66882813 23.50320313 -128.6875 22.875 C-129.96173828 22.09769531 -129.96173828 22.09769531 -131.26171875 21.3046875 C-131.83535156 20.87414062 -132.40898437 20.44359375 -133 20 C-133 19.34 -133 18.68 -133 18 C-128.3598889 17.30219557 -123.71917155 16.60861631 -119.07788086 15.91870117 C-117.50382042 15.6841435 -115.92992216 15.44849441 -114.35620117 15.21166992 C-106.45408361 14.02321154 -98.60196707 12.90314213 -90.63180542 12.27737427 C-88.12482757 12.01315597 -85.73921878 11.58466905 -83.27539062 11.05859375 C-78.39380681 10.05619135 -73.50888976 9.28444436 -68.57421875 8.59765625 C-67.27179985 8.41280922 -67.27179985 8.41280922 -65.94306946 8.22422791 C-63.1915822 7.83431748 -60.43956639 7.44829916 -57.6875 7.0625 C-55.88733232 6.80820786 -54.08720185 6.55365213 -52.28710938 6.29882812 C-48.68555937 5.78927583 -45.08381552 5.28112617 -41.48193359 4.77392578 C-34.15814123 3.74149038 -26.83653102 2.69382082 -19.51489258 1.64624023 C-18.7396524 1.53674042 -17.96441223 1.4272406 -17.16567993 1.31442261 C-15.24105532 1.03499744 -13.32067205 0.72670051 -11.40112305 0.41430664 C-7.54615855 -0.05528454 -3.88056965 -0.06808017 0 0 Z " fill="#4C661D" transform="translate(337,447)"/>
<path d="M0 0 C59.07 0 118.14 0 179 0 C179 44.55 179 89.1 179 135 C142.96013118 135.08060607 142.96013118 135.08060607 127.84765625 135.09765625 C117.41648388 135.10951946 106.98534385 135.12345928 96.55419922 135.15087891 C88.95696138 135.17083968 81.35974979 135.18372282 73.76248646 135.18817699 C69.74137433 135.19077982 65.72033729 135.19687928 61.69924927 135.21146011 C57.91049527 135.22508651 54.12184693 135.22921246 50.33307076 135.22621536 C48.94640083 135.22676327 47.55972719 135.23071051 46.17307854 135.23841095 C39.09979909 135.27574716 32.76915531 135.13087514 26 133 C24.48792969 132.57460938 24.48792969 132.57460938 22.9453125 132.140625 C6.46408793 126.93602777 -6.34267193 116.66162124 -14.43359375 101.2734375 C-24.46770355 80.13332487 -24.2507098 57.37977973 -16.5625 35.5625 C-11.90198405 23.36803192 -5.83270105 11.6654021 0 0 Z " fill="#567222" transform="translate(305,658)"/>
<path d="M0 0 C0.3810791 0.66193359 0.7621582 1.32386719 1.15478516 2.00585938 C8.64265356 15.00839632 16.15264706 27.99701236 23.72485352 40.95068359 C28.03256665 48.32583663 32.30253733 55.72218247 36.5625 63.125 C41.19685613 71.17819231 45.87884077 79.1997277 50.625 87.1875 C55.13695488 94.80268414 59.60449096 102.44194081 64 110.125 C64.52803223 111.03660889 65.05606445 111.94821777 65.60009766 112.88745117 C71.51939257 123.30165735 76.1782693 133.08816189 76.1875 145.125 C76.19974609 145.94226563 76.21199219 146.75953125 76.22460938 147.6015625 C76.26362565 164.04041969 69.09900482 179.67659874 57.9375 191.625 C49.03577389 200.07255641 38.45868189 205.79131523 27 210 C26.11103027 210.3568689 26.11103027 210.3568689 25.20410156 210.72094727 C8.74393571 217.22431046 -8.53758114 217.59279657 -26 217 C-26.41137207 216.2471875 -26.82274414 215.494375 -27.24658203 214.71875 C-34.35483294 201.72801254 -41.47803351 188.75739508 -49 176 C-54.51663382 166.64207268 -59.80071061 157.17049855 -65.01647949 147.64328003 C-70.18710213 138.20494811 -75.52576345 128.88225822 -80.98999023 119.60986328 C-85.32808699 112.22252012 -89.44906634 104.7354031 -93.50585938 97.19067383 C-97.78062948 89.28767102 -102.33546173 81.56404284 -106.98852539 73.87841797 C-107.51309326 73.00588379 -108.03766113 72.13334961 -108.578125 71.234375 C-109.28050293 70.07760254 -109.28050293 70.07760254 -109.99707031 68.89746094 C-111 67 -111 67 -111 65 C-109.21850586 63.72241211 -109.21850586 63.72241211 -106.71484375 62.27734375 C-105.79985107 61.74383301 -104.8848584 61.21032227 -103.94213867 60.66064453 C-102.95060791 60.09200684 -101.95907715 59.52336914 -100.9375 58.9375 C-98.89040629 57.74646958 -96.84353144 56.55506291 -94.796875 55.36328125 C-93.79462891 54.78271973 -92.79238281 54.2021582 -91.75976562 53.60400391 C-88.38312811 51.64146777 -85.03272704 49.64061491 -81.6875 47.625 C-80.49746413 46.90874069 -79.30735657 46.19260047 -78.1171875 45.4765625 C-77.47749023 45.09145508 -76.83779297 44.70634766 -76.17871094 44.30957031 C-73.62352534 42.77371021 -71.06574305 41.24222156 -68.5078125 39.7109375 C-58.39164508 33.65246548 -48.288564 27.57472422 -38.21899414 21.43920898 C-28.80976474 15.70643873 -19.39289127 9.98883274 -9.875 4.4375 C-9.09334473 3.97827148 -8.31168945 3.51904297 -7.50634766 3.04589844 C-2.24033303 0 -2.24033303 0 0 0 Z " fill="#4C671E" transform="translate(752,432)"/>
<path d="M0 0 C1.56234375 0.54333984 1.56234375 0.54333984 3.15625 1.09765625 C23.3939137 8.79109799 36.65481848 23.62391098 47 42 C47.43957031 42.75522949 47.87914062 43.51045898 48.33203125 44.28857422 C49.66124217 46.57590872 50.96049079 48.87758784 52.25 51.1875 C52.65766602 51.89422852 53.06533203 52.60095703 53.48535156 53.32910156 C54.578125 55.35546875 54.578125 55.35546875 56 59 C54.83837794 62.87140867 52.81220187 66.24652811 50.796875 69.734375 C50.15331055 70.85320068 49.50974609 71.97202637 48.84667969 73.12475586 C48.50519897 73.71513641 48.16371826 74.30551697 47.81188965 74.91378784 C45.99264011 78.05962143 44.18425373 81.21169164 42.375 84.36328125 C42.00638855 85.00483658 41.6377771 85.64639191 41.25799561 86.30738831 C37.70887051 92.4915128 34.22293682 98.71030007 30.75 104.9375 C26.58561972 112.40096507 22.38528095 119.84087826 18.125 127.25 C13.70991494 134.93144553 9.41288135 142.67402798 5.15161133 150.44140625 C-2.34050118 164.09647171 -10.0821636 177.58636806 -18 191 C-19.03171304 192.7549362 -20.06297934 194.51013512 -21.09375 196.265625 C-23.39222284 200.17921974 -25.69464402 204.09045622 -28 208 C-32.06664698 207.41623347 -34.86802186 206.11238865 -38.359375 203.97265625 C-39.38369629 203.35060303 -40.40801758 202.7285498 -41.46337891 202.08764648 C-42.54796387 201.41934814 -43.63254883 200.7510498 -44.75 200.0625 C-47.02306994 198.67908338 -49.29650801 197.29627146 -51.5703125 195.9140625 C-53.22981934 194.90134277 -53.22981934 194.90134277 -54.92285156 193.86816406 C-58.79903388 191.51489946 -62.70611906 189.21865416 -66.625 186.9375 C-73.04921216 183.1832729 -79.40393593 179.32213612 -85.75 175.4375 C-99.38610889 167.097181 -113.19072387 159.04884677 -127 151 C-129.28786218 149.66553898 -131.57555865 148.33079407 -133.86328125 146.99609375 C-135.57550902 145.99737557 -137.28774386 144.99866953 -139 144 C-137.92115372 140.60266724 -136.84458221 137.41790121 -135.07421875 134.3203125 C-134.69676514 133.65169189 -134.31931152 132.98307129 -133.93041992 132.29418945 C-133.52025635 131.57835693 -133.11009277 130.86252441 -132.6875 130.125 C-131.77991714 128.51767896 -130.87373965 126.9095638 -129.96875 125.30078125 C-129.48664063 124.44436035 -129.00453125 123.58793945 -128.5078125 122.70556641 C-125.84960166 117.93576515 -123.27446424 113.12119172 -120.6875 108.3125 C-116.4910785 100.52633895 -112.20350203 92.80289426 -107.8125 85.125 C-102.29560538 75.45957104 -97.06454709 65.65585568 -91.875 55.8125 C-91.09438622 54.33472002 -90.31362568 52.85701756 -89.53271484 51.37939453 C-85.38944485 43.5404491 -85.38944485 43.5404491 -81.27001953 35.68896484 C-76.07862254 25.76322349 -71.27653049 16.72052556 -63 9 C-62.44183594 8.43539062 -61.88367188 7.87078125 -61.30859375 7.2890625 C-45.39213893 -7.82198136 -19.46440272 -7.06743194 0 0 Z " fill="#5C7726" transform="translate(442,227)"/>
<path d="M0 0 C8.25 0 16.5 0 25 0 C27.75128659 6.39488234 30.26687469 12.62201301 32.15258789 19.31689453 C33.02479321 22.07850111 34.08582307 24.67004768 35.234375 27.328125 C38.06360126 34.04342511 40.57991509 40.84722582 43.02197266 47.71044922 C43.7551544 49.76443994 44.50050538 51.81376659 45.24609375 53.86328125 C45.7221037 55.19504483 46.19739017 56.52706728 46.671875 57.859375 C47.0956543 59.03983398 47.51943359 60.22029297 47.95605469 61.43652344 C49.10124994 65.34561369 49.59637919 68.95378481 50 73 C50.66 73 51.32 73 52 73 C52.09587402 72.05213623 52.19174805 71.10427246 52.29052734 70.12768555 C53.00185823 65.19140774 54.68515076 60.64010097 56.3515625 55.95703125 C56.68868256 54.99335129 57.02580261 54.02967133 57.37313843 53.03678894 C58.45107238 49.95987363 59.53784447 46.88616761 60.625 43.8125 C61.33262356 41.79773397 62.0396599 39.7827616 62.74609375 37.76757812 C64.14014983 33.79387705 65.53768112 29.8214279 66.93847656 25.85009766 C69.97513238 17.2390479 72.98592917 8.61897683 76 0 C84.91 0 93.82 0 103 0 C103 36.96 103 73.92 103 112 C95.74 112 88.48 112 81 112 C80.67 87.91 80.34 63.82 80 39 C71.35387637 64.70031356 71.35387637 64.70031356 63.0859375 90.5234375 C62.09543835 93.69445994 61.05054614 96.84836158 60 100 C54.39 100 48.78 100 43 100 C41.29311542 95.17076557 39.58764823 90.34106806 37.88525391 85.51025391 C37.31014589 83.87945948 36.73433912 82.24891125 36.15771484 80.61865234 C31.26997523 66.79725859 26.63726924 52.91180773 22 39 C21.67 63.09 21.34 87.18 21 112 C14.07 112 7.14 112 0 112 C0 75.04 0 38.08 0 0 Z " fill="#58712A" transform="translate(528,485)"/>
<path d="M0 0 C21.78 0 43.56 0 66 0 C66 6.27 66 12.54 66 19 C51.81 19 37.62 19 23 19 C23 27.58 23 36.16 23 45 C35.21 45 47.42 45 60 45 C60 51.27 60 57.54 60 64 C47.79 64 35.58 64 23 64 C23 73.57 23 83.14 23 93 C37.52 93 52.04 93 67 93 C67 99.27 67 105.54 67 112 C44.89 112 22.78 112 0 112 C0 75.04 0 38.08 0 0 Z " fill="#536A27" transform="translate(446,485)"/>
<path d="M0 0 C7.59 0 15.18 0 23 0 C23 36.96 23 73.92 23 112 C15.41 112 7.82 112 0 112 C0 75.04 0 38.08 0 0 Z " fill="#4D6621" transform="translate(404,485)"/>
<path d="M0 0 C2.57781906 2.57781906 2.62129616 4.4401839 3 8 C2.67 8.33 2.34 8.66 2 9 C1.87619162 11.05478453 1.82201797 13.1137896 1.79467773 15.17211914 C1.78477814 15.81600082 1.77487854 16.45988251 1.76467896 17.12327576 C1.73298472 19.26053131 1.70827551 21.39780913 1.68359375 23.53515625 C1.66303104 25.01346936 1.64203476 26.49177649 1.62062073 27.97007751 C1.56532941 31.86792171 1.51595143 35.76581958 1.46777344 39.66375732 C1.41760981 43.63851723 1.36189699 47.61319884 1.30664062 51.58789062 C1.19897276 59.39186085 1.09754713 67.19589602 1 75 C0.67 75 0.34 75 0 75 C0 50.25 0 25.5 0 0 Z " fill="#D7DCCF" transform="translate(549,522)"/>
<path d="M0 0 C2.97 0 5.94 0 9 0 C8.01 0.495 8.01 0.495 7 1 C7.33 2.65 7.66 4.3 8 6 C5.0280615 4.87548273 2.66559313 3.77706209 0 2 C0 1.34 0 0.68 0 0 Z " fill="#495F24" transform="translate(204,465)"/>
<path d="M0 0 C0.2475 0.61875 0.495 1.2375 0.75 1.875 C2.22879539 4.38895216 3.37921165 4.8534051 6 6 C6.66 6.66 7.32 7.32 8 8 C8.66 8.33 9.32 8.66 10 9 C9.67 9.99 9.34 10.98 9 12 C7.51437458 10.90453883 6.03668291 9.79831177 4.5625 8.6875 C3.73878906 8.07261719 2.91507812 7.45773437 2.06640625 6.82421875 C0 5 0 5 -1 2 C-0.67 1.34 -0.34 0.68 0 0 Z " fill="#5A6D30" transform="translate(303,771)"/>
<path d="M0 0 C0.66 0 1.32 0 2 0 C2.66 3.63 3.32 7.26 4 11 C1.23636467 8.50381325 -0.63219364 6.80066568 -1 3 C-0.67 2.01 -0.34 1.02 0 0 Z " fill="#677C42" transform="translate(274,734)"/>
<path d="M0 0 C0.33 0 0.66 0 1 0 C1 2.97 1 5.94 1 9 C-0.32 9.33 -1.64 9.66 -3 10 C-2.69201674 8.51988629 -2.378482 7.04092675 -2.0625 5.5625 C-1.88847656 4.73878906 -1.71445312 3.91507813 -1.53515625 3.06640625 C-1 1 -1 1 0 0 Z " fill="#E8E9E4" transform="translate(608,523)"/>
<path d="M0 0 C0.33 0.99 0.66 1.98 1 3 C-0.4375 5.1875 -0.4375 5.1875 -2 7 C-2.33 6.34 -2.66 5.68 -3 5 C-3.99 5 -4.98 5 -6 5 C-2.25 1.125 -2.25 1.125 0 0 Z " fill="#6D823F" transform="translate(714,300)"/>
</svg>
