<?xml version="1.0" standalone="no"?>
<!DOCTYPE svg PUBLIC "-//W3C//DTD SVG 20010904//EN"
 "http://www.w3.org/TR/2001/REC-SVG-20010904/DTD/svg10.dtd">
<svg version="1.0" xmlns="http://www.w3.org/2000/svg"
 width="1024.000000pt" height="1024.000000pt" viewBox="0 0 1024.000000 1024.000000"
 preserveAspectRatio="xMidYMid meet">

<g transform="translate(0.000000,1024.000000) scale(0.100000,-0.100000)"
fill="#000000" stroke="none">
<path d="M4420 8054 c80 -21 192 -77 258 -127 143 -111 216 -216 502 -722 114
-200 411 -723 456 -802 l24 -42 -37 -24 c-21 -14 -99 -60 -173 -103 l-134 -79
39 -7 c41 -8 358 -50 715 -94 113 -14 288 -36 389 -50 101 -14 186 -22 189
-19 3 3 56 133 118 288 221 558 335 843 359 900 13 31 22 57 19 57 -3 0 -31
-16 -62 -37 -153 -98 -286 -173 -293 -166 -4 4 -83 145 -175 313 -91 168 -185
338 -208 379 -71 128 -222 251 -391 318 l-70 28 -790 2 c-712 2 -785 1 -735
-13z m2400 -1458 c0 -3 -4 -8 -10 -11 -5 -3 -10 -1 -10 4 0 6 5 11 10 11 6 0
10 -2 10 -4z m-30 -28 c0 -16 -3 -19 -11 -11 -6 6 -8 16 -5 22 11 17 16 13 16
-11z m47 -85 c-6 -18 -17 -33 -25 -33 -12 0 -12 3 -1 17 12 14 12 15 0 9 -8
-5 -17 -3 -22 5 -12 19 -11 32 1 24 7 -4 9 2 5 18 -5 18 0 30 17 46 l23 22 7
-38 c4 -21 2 -52 -5 -70z"/>
<path d="M4040 7998 c-96 -10 -159 -41 -247 -122 -58 -54 -80 -85 -138 -193
-136 -253 -389 -722 -501 -925 -63 -114 -114 -211 -114 -215 1 -10 1075 -653
1090 -653 6 0 135 225 525 920 75 135 177 313 226 397 49 83 89 157 89 164 0
17 -106 213 -154 284 -171 255 -445 376 -776 343z"/>
<path d="M7440 5876 c-30 -18 -269 -160 -530 -316 -261 -155 -480 -287 -487
-292 -8 -7 0 -29 31 -81 82 -139 720 -1268 772 -1365 l39 -74 125 7 c320 17
541 98 699 256 76 76 122 148 159 251 23 63 26 88 26 188 0 98 -4 125 -25 180
-14 36 -122 232 -240 435 -119 204 -278 477 -354 608 -76 130 -143 237 -149
237 -6 0 -36 -16 -66 -34z"/>
<path d="M3140 5739 c-357 -53 -816 -118 -957 -136 -79 -9 -143 -20 -143 -23
0 -3 79 -54 175 -114 96 -59 177 -111 179 -115 2 -3 -61 -125 -140 -271 -272
-498 -293 -554 -281 -760 7 -115 22 -179 59 -262 53 -116 728 -1268 743 -1268
2 0 -3 20 -10 44 -37 121 -27 292 26 451 29 86 69 168 199 405 32 58 142 263
245 455 264 493 316 585 327 585 13 0 54 -21 221 -117 82 -47 151 -83 153 -80
3 3 -12 40 -34 83 -75 150 -515 1096 -526 1132 -9 27 1 27 -236 -9z"/>
<path d="M4040 4830 l0 -560 115 0 115 0 0 560 0 560 -115 0 -115 0 0 -560z"/>
<path d="M4468 4900 c-1 -269 -3 -520 -3 -557 l0 -68 328 -3 327 -2 0 95 0 95
-215 0 -215 0 0 150 0 150 183 0 182 0 -3 85 -3 85 -180 0 -179 0 0 141 0 141
215 -7 215 -8 0 97 0 96 -325 0 -325 0 -2 -490z"/>
<path d="M5280 4836 l0 -556 23 -2 c12 -1 60 -2 106 -2 l83 -1 -3 387 c-2 212
-2 385 -1 383 2 -2 37 -100 77 -217 40 -117 91 -262 112 -323 l38 -110 80 2
79 1 111 329 110 328 3 -387 2 -388 105 0 105 0 0 555 0 555 -129 0 -128 0
-21 -57 c-20 -57 -156 -441 -210 -595 -14 -43 -29 -78 -32 -78 -3 0 -15 31
-26 68 -12 37 -59 169 -105 294 -78 210 -103 261 -94 188 3 -21 0 -28 -10 -24
-8 3 -11 12 -9 19 3 7 -2 27 -10 44 -20 37 -20 37 0 45 8 3 12 2 9 -4 -3 -6
-1 -10 4 -10 14 0 14 -2 -5 53 l-16 47 -93 0 c-51 0 -107 3 -124 6 l-31 7 0
-557z m248 399 c-3 -3 -9 2 -12 12 -6 14 -5 15 5 6 7 -7 10 -15 7 -18z"/>
<path d="M5999 3990 c-41 -58 -160 -229 -264 -380 -104 -151 -242 -351 -307
-444 -66 -93 -117 -175 -114 -182 3 -7 108 -160 234 -341 125 -180 285 -411
355 -513 70 -102 138 -198 152 -215 l24 -30 1 212 0 212 488 3 487 3 59 24
c94 38 174 89 236 151 68 68 127 165 375 620 98 179 197 359 220 400 51 90
221 428 235 468 8 21 0 16 -36 -26 -83 -95 -237 -188 -379 -230 -168 -50 -199
-52 -966 -52 l-719 0 -2 213 -3 212 -76 -105z"/>
<path d="M3003 3553 c-115 -245 -154 -365 -169 -518 -19 -203 79 -453 224
-571 66 -54 123 -84 229 -121 l78 -28 735 -3 735 -3 2 671 1 670 -847 0 c-467
0 -868 3 -893 6 l-44 6 -51 -109z"/>
</g>
</svg>
